<?xml version="1.0" standalone="no"?>
<!DOCTYPE svg PUBLIC "-//W3C//DTD SVG 20010904//EN"
 "http://www.w3.org/TR/2001/REC-SVG-20010904/DTD/svg10.dtd">
<svg version="1.0" xmlns="http://www.w3.org/2000/svg"
 width="240.000000pt" height="240.000000pt" viewBox="0 0 240.000000 240.000000"
 preserveAspectRatio="xMidYMid meet">
<metadata>
Created by potrace 1.11, written by Peter Selinger 2001-2013
</metadata>
<g transform="translate(0.000000,240.000000) scale(0.100000,-0.100000)"
fill="#000000" stroke="none">
<path d="M1445 2385 c-265 -56 -476 -228 -582 -475 -83 -194 -80 -444 7 -636
109 -241 332 -415 590 -462 70 -13 209 -13 280 0 203 36 408 168 517 333 14
22 34 51 43 65 29 44 68 154 84 236 19 98 15 265 -9 353 -73 279 -297 503
-575 577 -82 21 -274 26 -355 9z m517 -295 c48 -14 114 -80 127 -127 15 -53
14 -86 -6 -135 -42 -108 -154 -154 -260 -108 -75 32 -112 82 -120 164 -15 141
117 245 259 206z"/>
<path d="M629 1136 c-30 -29 -183 -184 -341 -344 l-288 -290 0 -251 0 -251
300 0 300 0 0 100 0 100 100 0 100 0 0 100 0 100 104 0 c57 0 106 4 108 9 2 7
158 177 217 238 16 17 20 14 -59 53 -195 96 -361 256 -455 438 -15 28 -28 52
-30 52 -1 0 -26 -24 -56 -54z"/>
</g>
</svg>
