<?xml version="1.0" standalone="no"?>
<!DOCTYPE svg PUBLIC "-//W3C//DTD SVG 20010904//EN"
 "http://www.w3.org/TR/2001/REC-SVG-20010904/DTD/svg10.dtd">
<svg version="1.0" xmlns="http://www.w3.org/2000/svg"
 width="169.000000pt" height="169.000000pt" viewBox="0 0 169.000000 169.000000"
 preserveAspectRatio="xMidYMid meet">
<metadata>
Created by potrace 1.11, written by Peter Selinger 2001-2013
</metadata>
<g transform="translate(0.000000,169.000000) scale(0.100000,-0.100000)"
fill="#000000" stroke="none">
<path d="M860 1670 c-178 -37 -305 -104 -421 -220 -115 -115 -184 -247 -222
-425 -24 -109 -16 -345 16 -455 29 -105 48 -146 104 -232 94 -144 255 -255
433 -299 112 -28 326 -31 450 -6 108 22 230 65 230 81 0 7 -6 34 -14 60 -8 25
-14 49 -14 51 0 24 -15 86 -22 90 -5 3 -30 -3 -57 -14 -125 -49 -328 -65 -442
-35 -148 39 -273 138 -336 267 -53 110 -70 184 -69 317 1 296 140 508 381 580
140 42 366 25 485 -36 25 -13 27 -12 38 19 36 100 57 187 46 195 -15 12 -89
40 -118 46 -13 2 -45 10 -73 16 -84 21 -298 21 -395 0z"/>
</g>
</svg>
